<svg xmlns="http://www.w3.org/2000/svg" xmlns:xlink="http://www.w3.org/1999/xlink" width="200" zoomAndPan="magnify" viewBox="0 0 150 149.999998" height="200" preserveAspectRatio="xMidYMid meet" version="1.0"><defs><clipPath id="bf5bdc275d"><path d="M 54.675781 3.675781 L 97.425781 3.675781 L 97.425781 46.425781 L 54.675781 46.425781 Z M 54.675781 3.675781 " clip-rule="nonzero"/></clipPath><clipPath id="d87c1b62fd"><path d="M 71 44 L 78 44 L 78 46.425781 L 71 46.425781 Z M 71 44 " clip-rule="nonzero"/></clipPath><clipPath id="ed8cdb029f"><path d="M 1.03125 0 L 148.78125 0 L 148.78125 149 L 1.03125 149 Z M 1.03125 0 " clip-rule="nonzero"/></clipPath><clipPath id="e243bc2e02"><path d="M 6 29 L 148.78125 29 L 148.78125 149 L 6 149 Z M 6 29 " clip-rule="nonzero"/></clipPath></defs><g clip-path="url(#bf5bdc275d)"><path fill="#ef9230" d="M 76.050781 3.675781 C 64.242188 3.675781 54.675781 13.242188 54.675781 25.050781 C 54.675781 36.855469 64.242188 46.425781 76.050781 46.425781 C 87.855469 46.425781 97.425781 36.855469 97.425781 25.050781 C 97.425781 13.242188 87.855469 3.675781 76.050781 3.675781 Z M 76.050781 30.578125 C 72.996094 30.578125 70.519531 28.105469 70.519531 25.050781 C 70.519531 21.996094 72.996094 19.519531 76.050781 19.519531 C 79.105469 19.519531 81.578125 21.996094 81.578125 25.050781 C 81.578125 28.105469 79.105469 30.578125 76.050781 30.578125 Z M 76.050781 30.578125 " fill-opacity="1" fill-rule="nonzero"/></g><path fill="#d36c27" d="M 60.761719 12.910156 C 60.761719 12.910156 58.070312 13.910156 56.382812 21.820312 C 56.382812 21.820312 56.460938 24.277344 56 26.65625 C 55.539062 29.039062 55.84375 32.953125 57.074219 34.722656 C 58.300781 36.488281 59.914062 37.410156 61.757812 38.636719 C 63.601562 39.867188 64.753906 40.25 65.519531 41.25 C 66.289062 42.246094 67.824219 43.324219 67.824219 42.324219 C 67.824219 41.324219 65.828125 38.867188 64.445312 37.714844 C 63.0625 36.5625 59.992188 33.492188 60.222656 31.113281 C 60.453125 28.730469 60.375 22.125 60.453125 20.976562 C 60.53125 19.824219 61.449219 13.296875 60.761719 12.910156 Z M 60.761719 12.910156 " fill-opacity="1" fill-rule="nonzero"/><path fill="#d36c27" d="M 86.054688 41.667969 C 86.054688 41.667969 88.921875 41.589844 93.066406 34.640625 C 93.066406 34.640625 93.785156 32.289062 94.984375 30.183594 C 96.1875 28.078125 96.835938 22.734375 96.238281 20.664062 C 95.644531 18.597656 95.207031 18.734375 93.859375 16.980469 C 92.511719 15.222656 91.070312 14.496094 90.667969 13.300781 C 90.261719 12.109375 89.152344 10.597656 88.832031 11.542969 C 88.507812 12.488281 89.609375 15.457031 90.546875 16.992188 C 91.484375 18.53125 93.402344 22.429688 92.421875 24.605469 C 91.433594 26.789062 89.382812 33.066406 88.9375 34.132812 C 88.5 35.199219 85.523438 41.082031 86.054688 41.667969 Z M 86.054688 41.667969 " fill-opacity="1" fill-rule="nonzero"/><path fill="#f16b97" d="M 94.070312 19.195312 C 93.433594 17.230469 93.394531 14.949219 92.207031 13.3125 C 91.003906 11.660156 88.835938 10.925781 87.183594 9.722656 C 85.550781 8.535156 84.183594 6.691406 82.222656 6.054688 C 80.328125 5.441406 78.148438 6.105469 76.050781 6.105469 C 73.949219 6.105469 71.773438 5.441406 69.878906 6.054688 C 67.914062 6.691406 66.546875 8.535156 64.914062 9.722656 C 63.261719 10.925781 61.09375 11.664062 59.894531 13.3125 C 58.707031 14.945312 58.664062 17.230469 58.027344 19.195312 C 57.414062 21.089844 56.082031 22.953125 56.082031 25.050781 C 56.082031 27.148438 57.414062 29.011719 58.027344 30.90625 C 58.664062 32.867188 58.707031 35.152344 59.894531 36.785156 C 61.09375 38.4375 63.261719 39.175781 64.914062 40.375 C 66.546875 41.5625 67.914062 43.40625 69.878906 44.042969 C 71.773438 44.660156 73.949219 43.992188 76.050781 43.992188 C 78.148438 43.992188 80.328125 44.660156 82.222656 44.042969 C 84.183594 43.40625 85.550781 41.566406 87.183594 40.375 C 88.835938 39.175781 91.003906 38.4375 92.207031 36.785156 C 93.394531 35.152344 93.433594 32.867188 94.070312 30.90625 C 94.6875 29.011719 96.015625 27.148438 96.015625 25.050781 C 96.015625 22.949219 94.6875 21.085938 94.070312 19.195312 Z M 76.050781 31.398438 C 72.542969 31.398438 69.703125 28.558594 69.703125 25.050781 C 69.703125 21.542969 72.542969 18.703125 76.050781 18.703125 C 79.558594 18.703125 82.398438 21.542969 82.398438 25.050781 C 82.398438 28.558594 79.558594 31.398438 76.050781 31.398438 Z M 76.050781 31.398438 " fill-opacity="1" fill-rule="nonzero"/><path fill="#f27f9d" d="M 70.496094 10.742188 C 70.496094 10.742188 68.242188 10.125 66.5 13.199219 C 64.761719 16.269531 63.738281 16.167969 64.25 18.214844 C 64.761719 20.261719 62.816406 23.234375 64.863281 22.925781 C 66.910156 22.617188 66.707031 21.59375 67.421875 20.46875 C 68.140625 19.339844 68.652344 17.804688 70.800781 17.089844 C 72.953125 16.371094 74.386719 15.757812 74.796875 14.632812 C 75.207031 13.503906 74.691406 10.535156 70.496094 10.742188 Z M 70.496094 10.742188 " fill-opacity="1" fill-rule="nonzero"/><path fill="#f7afc1" d="M 68.460938 14.230469 C 69.984375 12.839844 71.710938 11.957031 72.492188 13.199219 C 73.328125 14.523438 71.878906 13.964844 69.726562 15.039062 C 67.578125 16.117188 66.859375 18.164062 66.464844 18.070312 C 66.019531 17.96875 67.296875 15.300781 68.460938 14.230469 Z M 68.460938 14.230469 " fill-opacity="1" fill-rule="nonzero"/><path fill="#f27f9d" d="M 64.042969 28.148438 C 64.042969 28.148438 60.765625 28.148438 61.382812 30.296875 C 61.996094 32.449219 62.40625 32.859375 63.53125 35.210938 C 64.660156 37.566406 64.148438 39.511719 66.808594 39.820312 C 69.472656 40.128906 75.921875 41.050781 71.621094 38.589844 C 67.320312 36.132812 68.34375 38.386719 67.011719 35.519531 C 65.683594 32.652344 66.5 33.882812 65.683594 31.21875 C 64.863281 28.558594 64.863281 28.558594 64.042969 28.148438 Z M 64.042969 28.148438 " fill-opacity="1" fill-rule="nonzero"/><path fill="#f7b0bf" d="M 78.019531 18.011719 C 78.019531 18.011719 79.863281 17.089844 80.992188 18.726562 C 82.117188 20.367188 82.832031 25.28125 84.0625 26.613281 C 85.292969 27.941406 81.496094 31.496094 79.882812 31.496094 C 78.71875 31.496094 79.640625 30.332031 79.960938 30.035156 C 80.324219 29.703125 82.222656 27.789062 82.371094 26.152344 C 82.597656 23.695312 81.976562 21.335938 79.585938 19.792969 C 79.105469 19.480469 76.9375 18.640625 78.019531 18.011719 Z M 78.019531 18.011719 " fill-opacity="1" fill-rule="nonzero"/><path fill="#ee3d82" d="M 72.464844 18.394531 C 72.464844 18.394531 71.953125 19.828125 69.703125 21.054688 C 67.449219 22.285156 67.550781 24.027344 68.269531 24.949219 C 68.984375 25.871094 69.292969 29.453125 70.519531 30.273438 C 71.75 31.089844 71.714844 30.34375 70.589844 28.5 C 69.464844 26.65625 69.054688 22.894531 71.03125 20.953125 C 72.757812 19.261719 73.796875 18.804688 72.464844 18.394531 Z M 72.464844 18.394531 " fill-opacity="1" fill-rule="nonzero"/><path fill="#f7b2c3" d="M 64.042969 31.425781 C 64.042969 31.425781 63.738281 32.039062 64.351562 34.085938 C 64.964844 36.132812 65.171875 37.671875 66.195312 38.285156 C 67.21875 38.898438 68.855469 39.308594 69.0625 39.105469 C 69.265625 38.898438 67.933594 39.105469 67.21875 37.976562 C 66.5 36.851562 64.964844 30.808594 64.042969 31.425781 Z M 64.042969 31.425781 " fill-opacity="1" fill-rule="nonzero"/><path fill="#f7b1c2" d="M 69.359375 43.171875 C 68.515625 42.480469 67.902344 41.097656 67.289062 40.558594 C 66.671875 40.023438 63.140625 38.488281 62.832031 37.796875 C 62.527344 37.105469 62.140625 36.644531 61.679688 35.953125 C 61.21875 35.261719 60.761719 35.183594 59.992188 33.417969 C 59.222656 31.652344 59.53125 31.039062 59.222656 30.269531 C 58.917969 29.5 58.761719 28.503906 58.53125 27.734375 C 58.300781 26.96875 58.992188 24.511719 58.761719 23.664062 C 58.53125 22.820312 59.222656 21.746094 59.222656 21.128906 C 59.222656 20.515625 59.070312 18.980469 59.300781 18.136719 C 59.53125 17.289062 60.144531 15.140625 60.53125 14.296875 C 60.914062 13.453125 62.371094 12.300781 64.675781 10.917969 C 66.980469 9.535156 68.054688 8 68.285156 7.84375 C 68.429688 7.75 68.453125 7.183594 68.453125 6.765625 C 67.1875 7.609375 66.125 8.847656 64.914062 9.726562 C 63.261719 10.925781 61.09375 11.667969 59.894531 13.316406 C 58.707031 14.949219 58.664062 17.234375 58.027344 19.199219 C 57.414062 21.09375 56.082031 22.957031 56.082031 25.050781 C 56.082031 27.152344 57.414062 29.015625 58.027344 30.90625 C 58.664062 32.871094 58.707031 35.152344 59.894531 36.789062 C 61.09375 38.441406 63.261719 39.179688 64.914062 40.378906 C 66.546875 41.566406 67.914062 43.410156 69.878906 44.046875 C 70.035156 44.097656 70.191406 44.140625 70.347656 44.171875 C 70.074219 43.835938 69.71875 43.464844 69.359375 43.171875 Z M 69.359375 43.171875 " fill-opacity="1" fill-rule="nonzero"/><path fill="#f27f9d" d="M 86.058594 18.828125 C 86.058594 18.828125 85.855469 16.78125 83.5 15.65625 C 81.144531 14.527344 79.710938 12.890625 80.425781 12.277344 C 81.144531 11.660156 83.804688 10.636719 85.957031 12.789062 C 88.105469 14.9375 92.917969 19.851562 91.894531 23.335938 C 90.871094 26.816406 89.949219 30.296875 89.335938 32.652344 C 88.722656 35.007812 87.390625 36.644531 85.75 36.339844 C 84.113281 36.03125 82.066406 37.363281 81.144531 37.566406 C 80.222656 37.773438 78.6875 37.566406 81.964844 34.496094 C 85.238281 31.425781 87.183594 30.398438 87.390625 26.613281 C 87.59375 22.824219 85.957031 22.003906 86.058594 18.828125 Z M 86.058594 18.828125 " fill-opacity="1" fill-rule="nonzero"/><path fill="#f7afc2" d="M 86.457031 16.527344 C 86.457031 16.527344 87.648438 18.0625 87.839844 20.523438 C 88.03125 22.980469 87.878906 23.863281 88.339844 24.589844 C 88.800781 25.320312 90.757812 23.210938 89.875 21.367188 C 88.992188 19.523438 86.804688 15.109375 86.457031 16.527344 Z M 86.457031 16.527344 " fill-opacity="1" fill-rule="nonzero"/><path fill="#f7afc2" d="M 84 34.613281 C 83.28125 34.292969 85.765625 33.5 86.265625 32.234375 C 86.765625 30.964844 86.957031 32.808594 86.957031 32.808594 C 86.957031 32.808594 87.378906 34.574219 86.6875 34.882812 C 85.996094 35.191406 84.347656 34.765625 84 34.613281 Z M 84 34.613281 " fill-opacity="1" fill-rule="nonzero"/><path fill="#ee3d82" d="M 94.070312 19.195312 C 94.015625 19.023438 93.964844 18.847656 93.914062 18.671875 C 93.929688 19.199219 93.964844 19.691406 94.046875 20.058594 C 94.351562 21.492188 95.683594 25.484375 93.226562 28.558594 C 90.769531 31.628906 90.050781 32.34375 89.539062 34.804688 C 89.027344 37.261719 88.925781 35.828125 85.445312 38.695312 C 81.964844 41.5625 82.679688 41.867188 80.632812 43.097656 C 78.585938 44.324219 73.355469 43.351562 69.878906 44.042969 C 71.773438 44.660156 73.949219 43.992188 76.050781 43.992188 C 78.148438 43.992188 80.328125 44.660156 82.222656 44.042969 C 84.183594 43.40625 85.550781 41.566406 87.183594 40.375 C 88.835938 39.175781 91.003906 38.4375 92.207031 36.785156 C 93.394531 35.152344 93.433594 32.867188 94.070312 30.90625 C 94.6875 29.011719 96.015625 27.148438 96.015625 25.050781 C 96.015625 22.949219 94.6875 21.085938 94.070312 19.195312 Z M 94.070312 19.195312 " fill-opacity="1" fill-rule="nonzero"/><path fill="#ee3d82" d="M 76.125 7.15625 C 77.253906 7.464844 79.8125 8.078125 82.578125 8.589844 C 85.34375 9.101562 90.769531 11.867188 91.792969 13.503906 C 92.175781 14.121094 92.59375 14.519531 92.957031 14.777344 C 92.769531 14.253906 92.53125 13.757812 92.207031 13.3125 C 91.003906 11.660156 89.292969 9.964844 87.640625 8.765625 C 86.007812 7.578125 84.183594 6.691406 82.222656 6.054688 C 80.328125 5.441406 78.148438 6.105469 76.050781 6.105469 C 75.550781 6.105469 75.046875 6.070312 74.542969 6.019531 C 74.921875 6.449219 75.492188 6.980469 76.125 7.15625 Z M 76.125 7.15625 " fill-opacity="1" fill-rule="nonzero"/><path fill="#ec008c" d="M 91.605469 22.902344 C 91.5 22.902344 91.402344 22.851562 91.34375 22.757812 C 91.253906 22.617188 91.296875 22.425781 91.441406 22.332031 L 92.777344 21.480469 C 92.917969 21.390625 93.109375 21.433594 93.203125 21.578125 C 93.292969 21.71875 93.25 21.910156 93.105469 22 L 91.769531 22.855469 C 91.714844 22.886719 91.660156 22.902344 91.605469 22.902344 Z M 91.605469 22.902344 " fill-opacity="1" fill-rule="nonzero"/><path fill="#aadff1" d="M 80.191406 41.328125 C 80.128906 41.328125 80.0625 41.308594 80.003906 41.265625 L 78.746094 40.308594 C 78.609375 40.207031 78.585938 40.015625 78.6875 39.878906 C 78.789062 39.742188 78.980469 39.71875 79.117188 39.820312 L 80.375 40.777344 C 80.511719 40.878906 80.539062 41.074219 80.433594 41.207031 C 80.375 41.289062 80.285156 41.328125 80.191406 41.328125 Z M 80.191406 41.328125 " fill-opacity="1" fill-rule="nonzero"/><path fill="#00a651" d="M 66.398438 40.242188 C 66.296875 40.242188 66.199219 40.191406 66.140625 40.101562 L 65.265625 38.730469 C 65.171875 38.585938 65.214844 38.398438 65.359375 38.304688 C 65.503906 38.214844 65.691406 38.257812 65.785156 38.398438 L 66.660156 39.773438 C 66.753906 39.914062 66.710938 40.105469 66.566406 40.195312 C 66.511719 40.226562 66.457031 40.242188 66.398438 40.242188 Z M 66.398438 40.242188 " fill-opacity="1" fill-rule="nonzero"/><path fill="#fff200" d="M 83.738281 38.433594 C 83.730469 38.433594 83.722656 38.433594 83.71875 38.433594 C 83.550781 38.421875 83.417969 38.277344 83.429688 38.109375 L 83.539062 36.265625 C 83.550781 36.097656 83.695312 35.96875 83.867188 35.976562 C 84.035156 35.988281 84.164062 36.132812 84.15625 36.304688 L 84.042969 38.144531 C 84.03125 38.308594 83.898438 38.433594 83.738281 38.433594 Z M 83.738281 38.433594 " fill-opacity="1" fill-rule="nonzero"/><path fill="#ffffff" d="M 64.371094 14.214844 C 64.308594 14.214844 64.25 14.199219 64.199219 14.164062 L 62.71875 13.175781 C 62.578125 13.082031 62.542969 12.894531 62.636719 12.753906 C 62.730469 12.613281 62.921875 12.574219 63.0625 12.667969 L 64.539062 13.65625 C 64.679688 13.75 64.71875 13.941406 64.621094 14.082031 C 64.566406 14.167969 64.46875 14.214844 64.371094 14.214844 Z M 64.371094 14.214844 " fill-opacity="1" fill-rule="nonzero"/><path fill="#00aeef" d="M 63.679688 25.964844 C 63.59375 25.964844 63.507812 25.929688 63.449219 25.863281 L 62.199219 24.445312 C 62.089844 24.316406 62.101562 24.125 62.230469 24.011719 C 62.355469 23.902344 62.550781 23.914062 62.660156 24.042969 L 63.910156 25.460938 C 64.019531 25.585938 64.007812 25.78125 63.878906 25.890625 C 63.820312 25.941406 63.75 25.964844 63.679688 25.964844 Z M 63.679688 25.964844 " fill-opacity="1" fill-rule="nonzero"/><path fill="#fff200" d="M 59.839844 28.730469 C 59.742188 28.730469 59.652344 28.6875 59.59375 28.609375 L 58.53125 27.183594 C 58.429688 27.050781 58.457031 26.855469 58.597656 26.753906 C 58.730469 26.652344 58.925781 26.679688 59.027344 26.820312 L 60.085938 28.242188 C 60.1875 28.378906 60.160156 28.570312 60.023438 28.671875 C 59.964844 28.714844 59.902344 28.730469 59.839844 28.730469 Z M 59.839844 28.730469 " fill-opacity="1" fill-rule="nonzero"/><path fill="#aadff1" d="M 61.414062 36.035156 C 61.398438 36.035156 61.390625 36.035156 61.375 36.035156 C 61.207031 36.015625 61.085938 35.863281 61.109375 35.695312 L 61.300781 34.070312 C 61.320312 33.902344 61.472656 33.78125 61.640625 33.800781 C 61.808594 33.824219 61.929688 33.972656 61.910156 34.144531 L 61.71875 35.765625 C 61.699219 35.921875 61.566406 36.035156 61.414062 36.035156 Z M 61.414062 36.035156 " fill-opacity="1" fill-rule="nonzero"/><path fill="#00aeef" d="M 66.519531 34.800781 C 66.464844 34.800781 66.410156 34.785156 66.359375 34.757812 C 66.214844 34.671875 66.167969 34.480469 66.257812 34.335938 L 67.125 32.902344 C 67.214844 32.757812 67.402344 32.710938 67.546875 32.800781 C 67.695312 32.886719 67.742188 33.078125 67.652344 33.222656 L 66.785156 34.65625 C 66.722656 34.746094 66.625 34.800781 66.519531 34.800781 Z M 66.519531 34.800781 " fill-opacity="1" fill-rule="nonzero"/><path fill="#ffffff" d="M 64.753906 30.652344 L 62.796875 30.644531 C 62.625 30.644531 62.488281 30.507812 62.488281 30.339844 C 62.488281 30.167969 62.625 30.03125 62.796875 30.03125 L 64.753906 30.035156 C 64.921875 30.035156 65.058594 30.175781 65.058594 30.34375 C 65.058594 30.515625 64.921875 30.652344 64.753906 30.652344 Z M 64.753906 30.652344 " fill-opacity="1" fill-rule="nonzero"/><path fill="#ec008c" d="M 69.285156 29.804688 C 69.238281 29.804688 69.191406 29.796875 69.144531 29.773438 L 67.632812 29.019531 C 67.480469 28.941406 67.421875 28.757812 67.496094 28.605469 C 67.570312 28.453125 67.757812 28.394531 67.90625 28.46875 L 69.417969 29.222656 C 69.570312 29.300781 69.632812 29.484375 69.558594 29.632812 C 69.503906 29.746094 69.398438 29.804688 69.285156 29.804688 Z M 69.285156 29.804688 " fill-opacity="1" fill-rule="nonzero"/><path fill="#ec008c" d="M 84.019531 25.082031 C 83.953125 25.082031 83.886719 25.0625 83.828125 25.019531 C 83.695312 24.914062 83.671875 24.722656 83.777344 24.589844 L 84.941406 23.089844 C 85.046875 22.957031 85.238281 22.933594 85.371094 23.039062 C 85.503906 23.144531 85.527344 23.335938 85.425781 23.46875 L 84.257812 24.964844 C 84.199219 25.042969 84.109375 25.082031 84.019531 25.082031 Z M 84.019531 25.082031 " fill-opacity="1" fill-rule="nonzero"/><path fill="#39b54a" d="M 87.332031 28.730469 C 87.28125 28.730469 87.230469 28.71875 87.179688 28.691406 L 85.535156 27.75 C 85.390625 27.664062 85.339844 27.476562 85.425781 27.328125 C 85.507812 27.183594 85.695312 27.132812 85.84375 27.214844 L 87.488281 28.15625 C 87.632812 28.242188 87.683594 28.429688 87.601562 28.578125 C 87.542969 28.675781 87.4375 28.730469 87.332031 28.730469 Z M 87.332031 28.730469 " fill-opacity="1" fill-rule="nonzero"/><path fill="#00aeef" d="M 91.851562 28.621094 C 91.796875 28.621094 91.746094 28.609375 91.695312 28.578125 C 91.550781 28.492188 91.5 28.304688 91.585938 28.15625 L 92.289062 26.964844 C 92.375 26.820312 92.5625 26.769531 92.710938 26.855469 C 92.855469 26.941406 92.902344 27.128906 92.820312 27.273438 L 92.117188 28.46875 C 92.0625 28.566406 91.960938 28.621094 91.851562 28.621094 Z M 91.851562 28.621094 " fill-opacity="1" fill-rule="nonzero"/><path fill="#aadff1" d="M 83.417969 32.417969 C 83.402344 32.417969 83.386719 32.417969 83.371094 32.414062 C 83.203125 32.390625 83.085938 32.234375 83.117188 32.0625 L 83.398438 30.230469 C 83.421875 30.058594 83.578125 29.945312 83.746094 29.972656 C 83.917969 30 84.03125 30.15625 84.003906 30.324219 L 83.722656 32.160156 C 83.695312 32.308594 83.566406 32.417969 83.417969 32.417969 Z M 83.417969 32.417969 " fill-opacity="1" fill-rule="nonzero"/><path fill="#ffffff" d="M 91.246094 33.429688 C 91.144531 33.429688 91.046875 33.378906 90.988281 33.289062 L 89.996094 31.738281 C 89.902344 31.59375 89.945312 31.40625 90.089844 31.3125 C 90.230469 31.222656 90.421875 31.261719 90.511719 31.40625 L 91.503906 32.953125 C 91.597656 33.097656 91.554688 33.289062 91.410156 33.378906 C 91.359375 33.414062 91.300781 33.429688 91.246094 33.429688 Z M 91.246094 33.429688 " fill-opacity="1" fill-rule="nonzero"/><path fill="#ec008c" d="M 88.566406 36.171875 C 88.507812 36.171875 88.441406 36.152344 88.386719 36.109375 L 87.230469 35.277344 C 87.089844 35.179688 87.058594 34.988281 87.160156 34.851562 C 87.257812 34.714844 87.453125 34.683594 87.585938 34.78125 L 88.746094 35.613281 C 88.886719 35.714844 88.914062 35.90625 88.816406 36.042969 C 88.761719 36.125 88.664062 36.171875 88.566406 36.171875 Z M 88.566406 36.171875 " fill-opacity="1" fill-rule="nonzero"/><path fill="#fff200" d="M 72.390625 34.640625 C 72.242188 34.640625 72.113281 34.535156 72.089844 34.382812 C 72.0625 34.21875 72.175781 34.058594 72.347656 34.03125 L 74.230469 33.730469 C 74.394531 33.703125 74.554688 33.816406 74.582031 33.988281 C 74.605469 34.152344 74.492188 34.3125 74.324219 34.335938 L 72.441406 34.640625 C 72.425781 34.640625 72.40625 34.640625 72.390625 34.640625 Z M 72.390625 34.640625 " fill-opacity="1" fill-rule="nonzero"/><path fill="#ffffff" d="M 70.679688 39.207031 C 70.578125 39.207031 70.480469 39.15625 70.421875 39.066406 L 69.074219 37.011719 C 68.980469 36.871094 69.019531 36.679688 69.164062 36.585938 C 69.304688 36.496094 69.496094 36.535156 69.589844 36.675781 L 70.933594 38.734375 C 71.027344 38.875 70.988281 39.066406 70.847656 39.15625 C 70.792969 39.1875 70.734375 39.207031 70.679688 39.207031 Z M 70.679688 39.207031 " fill-opacity="1" fill-rule="nonzero"/><path fill="#00aeef" d="M 75.546875 39.519531 C 75.441406 39.519531 75.339844 39.464844 75.28125 39.367188 L 74.316406 37.722656 C 74.234375 37.574219 74.28125 37.386719 74.425781 37.300781 C 74.574219 37.214844 74.761719 37.265625 74.847656 37.410156 L 75.8125 39.058594 C 75.894531 39.203125 75.847656 39.394531 75.703125 39.476562 C 75.65625 39.503906 75.601562 39.519531 75.546875 39.519531 Z M 75.546875 39.519531 " fill-opacity="1" fill-rule="nonzero"/><path fill="#ec008c" d="M 71.632812 42.539062 C 71.476562 42.539062 71.34375 42.425781 71.328125 42.269531 C 71.304688 42.097656 71.425781 41.949219 71.597656 41.925781 L 73.394531 41.714844 C 73.5625 41.695312 73.714844 41.816406 73.734375 41.984375 C 73.757812 42.152344 73.636719 42.304688 73.46875 42.324219 L 71.667969 42.535156 C 71.65625 42.535156 71.644531 42.539062 71.632812 42.539062 Z M 71.632812 42.539062 " fill-opacity="1" fill-rule="nonzero"/><path fill="#ffffff" d="M 78.675781 36.511719 C 78.503906 36.511719 78.367188 36.375 78.367188 36.207031 L 78.367188 33.75 C 78.367188 33.578125 78.503906 33.441406 78.675781 33.441406 C 78.84375 33.441406 78.980469 33.578125 78.980469 33.75 L 78.980469 36.207031 C 78.980469 36.375 78.84375 36.511719 78.675781 36.511719 Z M 78.675781 36.511719 " fill-opacity="1" fill-rule="nonzero"/><path fill="#aadff1" d="M 71.972656 9.457031 C 71.914062 9.457031 71.855469 9.441406 71.804688 9.40625 L 70.429688 8.519531 C 70.289062 8.425781 70.246094 8.238281 70.339844 8.09375 C 70.429688 7.949219 70.621094 7.910156 70.765625 8 L 72.136719 8.890625 C 72.28125 8.980469 72.324219 9.171875 72.230469 9.3125 C 72.171875 9.402344 72.074219 9.457031 71.972656 9.457031 Z M 71.972656 9.457031 " fill-opacity="1" fill-rule="nonzero"/><path fill="#00aeef" d="M 85.808594 11.546875 C 85.746094 11.546875 85.683594 11.527344 85.628906 11.488281 L 84.542969 10.699219 C 84.40625 10.597656 84.375 10.40625 84.472656 10.269531 C 84.574219 10.132812 84.765625 10.101562 84.90625 10.199219 L 85.988281 10.988281 C 86.128906 11.089844 86.160156 11.28125 86.058594 11.417969 C 85.996094 11.503906 85.902344 11.546875 85.808594 11.546875 Z M 85.808594 11.546875 " fill-opacity="1" fill-rule="nonzero"/><path fill="#00a651" d="M 67.824219 12.21875 C 67.824219 12.21875 67.816406 12.21875 67.816406 12.21875 C 67.644531 12.214844 67.511719 12.070312 67.519531 11.902344 L 67.566406 10.378906 C 67.570312 10.210938 67.710938 10.078125 67.882812 10.082031 C 68.054688 10.085938 68.1875 10.230469 68.179688 10.398438 L 68.132812 11.921875 C 68.128906 12.085938 67.992188 12.21875 67.824219 12.21875 Z M 67.824219 12.21875 " fill-opacity="1" fill-rule="nonzero"/><path fill="#39b54a" d="M 90.863281 17.464844 C 90.773438 17.464844 90.683594 17.425781 90.625 17.351562 L 89.378906 15.808594 C 89.273438 15.675781 89.292969 15.484375 89.425781 15.375 C 89.558594 15.269531 89.75 15.289062 89.859375 15.421875 L 91.101562 16.964844 C 91.210938 17.097656 91.1875 17.289062 91.054688 17.394531 C 90.996094 17.441406 90.929688 17.464844 90.863281 17.464844 Z M 90.863281 17.464844 " fill-opacity="1" fill-rule="nonzero"/><path fill="#fff200" d="M 84.378906 16.605469 C 84.324219 16.605469 84.273438 16.59375 84.222656 16.5625 C 84.078125 16.480469 84.027344 16.289062 84.113281 16.144531 L 85.148438 14.371094 C 85.234375 14.222656 85.425781 14.171875 85.570312 14.261719 C 85.714844 14.34375 85.765625 14.535156 85.679688 14.679688 L 84.644531 16.453125 C 84.585938 16.546875 84.480469 16.605469 84.378906 16.605469 Z M 84.378906 16.605469 " fill-opacity="1" fill-rule="nonzero"/><path fill="#00aeef" d="M 89.046875 19.863281 C 89.042969 19.863281 89.042969 19.863281 89.039062 19.863281 L 87.328125 19.824219 C 87.15625 19.816406 87.023438 19.675781 87.027344 19.507812 C 87.03125 19.339844 87.171875 19.203125 87.339844 19.207031 L 89.054688 19.25 C 89.222656 19.253906 89.359375 19.394531 89.355469 19.5625 C 89.347656 19.730469 89.214844 19.863281 89.046875 19.863281 Z M 89.046875 19.863281 " fill-opacity="1" fill-rule="nonzero"/><path fill="#aadff1" d="M 82.496094 19.898438 C 82.371094 19.898438 82.257812 19.824219 82.210938 19.703125 L 81.5625 18.054688 C 81.5 17.894531 81.578125 17.71875 81.734375 17.65625 C 81.894531 17.59375 82.070312 17.667969 82.136719 17.828125 L 82.78125 19.480469 C 82.84375 19.636719 82.765625 19.816406 82.609375 19.878906 C 82.570312 19.890625 82.53125 19.898438 82.496094 19.898438 Z M 82.496094 19.898438 " fill-opacity="1" fill-rule="nonzero"/><path fill="#39b54a" d="M 68.683594 24.257812 C 68.632812 24.257812 68.574219 24.242188 68.527344 24.210938 L 67.050781 23.308594 C 66.90625 23.21875 66.863281 23.03125 66.949219 22.886719 C 67.039062 22.742188 67.226562 22.699219 67.371094 22.785156 L 68.847656 23.6875 C 68.992188 23.773438 69.035156 23.960938 68.949219 24.109375 C 68.890625 24.207031 68.789062 24.257812 68.683594 24.257812 Z M 68.683594 24.257812 " fill-opacity="1" fill-rule="nonzero"/><path fill="#00a651" d="M 58.761719 23.046875 C 58.703125 23.046875 58.640625 23.03125 58.585938 22.992188 C 58.449219 22.894531 58.414062 22.703125 58.511719 22.5625 L 59.429688 21.253906 C 59.527344 21.117188 59.71875 21.082031 59.859375 21.179688 C 59.996094 21.277344 60.03125 21.46875 59.933594 21.605469 L 59.015625 22.917969 C 58.957031 23.003906 58.859375 23.046875 58.761719 23.046875 Z M 58.761719 23.046875 " fill-opacity="1" fill-rule="nonzero"/><path fill="#aadff1" d="M 69.652344 19.316406 C 69.535156 19.316406 69.417969 19.246094 69.371094 19.128906 L 68.699219 17.5625 C 68.632812 17.40625 68.703125 17.226562 68.859375 17.15625 C 69.015625 17.089844 69.195312 17.164062 69.265625 17.320312 L 69.9375 18.886719 C 70.003906 19.042969 69.933594 19.222656 69.777344 19.289062 C 69.734375 19.308594 69.691406 19.316406 69.652344 19.316406 Z M 69.652344 19.316406 " fill-opacity="1" fill-rule="nonzero"/><path fill="#ec008c" d="M 61.679688 17.519531 C 61.578125 17.519531 61.472656 17.464844 61.417969 17.367188 L 60.484375 15.804688 C 60.398438 15.660156 60.449219 15.472656 60.59375 15.386719 C 60.738281 15.300781 60.929688 15.347656 61.011719 15.492188 L 61.941406 17.058594 C 62.03125 17.203125 61.980469 17.394531 61.835938 17.476562 C 61.789062 17.503906 61.734375 17.519531 61.679688 17.519531 Z M 61.679688 17.519531 " fill-opacity="1" fill-rule="nonzero"/><path fill="#fff200" d="M 64.726562 20.363281 C 64.675781 20.363281 64.625 20.351562 64.578125 20.320312 C 64.429688 20.238281 64.375 20.050781 64.460938 19.902344 L 65.332031 18.363281 C 65.417969 18.214844 65.601562 18.164062 65.75 18.25 C 65.898438 18.332031 65.953125 18.519531 65.867188 18.667969 L 64.996094 20.207031 C 64.941406 20.304688 64.835938 20.363281 64.726562 20.363281 Z M 64.726562 20.363281 " fill-opacity="1" fill-rule="nonzero"/><path fill="#ffffff" d="M 76.789062 16.699219 C 76.640625 16.699219 76.503906 16.585938 76.484375 16.433594 C 76.460938 16.265625 76.582031 16.109375 76.75 16.085938 L 78.691406 15.832031 C 78.859375 15.808594 79.015625 15.929688 79.039062 16.09375 C 79.058594 16.265625 78.941406 16.417969 78.773438 16.441406 L 76.832031 16.695312 C 76.816406 16.695312 76.800781 16.699219 76.789062 16.699219 Z M 76.789062 16.699219 " fill-opacity="1" fill-rule="nonzero"/><path fill="#ec008c" d="M 81.882812 12.835938 C 81.777344 12.835938 81.675781 12.78125 81.617188 12.6875 L 80.59375 11.003906 C 80.507812 10.859375 80.550781 10.671875 80.695312 10.582031 C 80.84375 10.496094 81.027344 10.539062 81.117188 10.683594 L 82.140625 12.367188 C 82.230469 12.511719 82.1875 12.699219 82.039062 12.789062 C 81.992188 12.820312 81.933594 12.835938 81.882812 12.835938 Z M 81.882812 12.835938 " fill-opacity="1" fill-rule="nonzero"/><path fill="#00a651" d="M 77.152344 13 C 77.039062 13 76.929688 12.9375 76.875 12.828125 L 76.074219 11.199219 C 76 11.050781 76.058594 10.867188 76.214844 10.789062 C 76.363281 10.714844 76.550781 10.777344 76.625 10.929688 L 77.425781 12.558594 C 77.5 12.707031 77.441406 12.894531 77.285156 12.96875 C 77.242188 12.992188 77.195312 13 77.152344 13 Z M 77.152344 13 " fill-opacity="1" fill-rule="nonzero"/><path fill="#fff200" d="M 77.472656 8.1875 C 77.324219 8.1875 77.195312 8.082031 77.167969 7.9375 C 77.136719 7.769531 77.246094 7.609375 77.417969 7.578125 L 79.4375 7.210938 C 79.601562 7.179688 79.765625 7.289062 79.796875 7.457031 C 79.824219 7.625 79.714844 7.785156 79.546875 7.816406 L 77.527344 8.183594 C 77.507812 8.183594 77.492188 8.1875 77.472656 8.1875 Z M 77.472656 8.1875 " fill-opacity="1" fill-rule="nonzero"/><path fill="#ec008c" d="M 72.988281 15.992188 C 72.910156 15.992188 72.832031 15.960938 72.769531 15.902344 L 71.527344 14.664062 C 71.40625 14.542969 71.40625 14.351562 71.523438 14.230469 C 71.644531 14.109375 71.839844 14.109375 71.960938 14.226562 L 73.203125 15.464844 C 73.324219 15.582031 73.324219 15.777344 73.207031 15.898438 C 73.144531 15.960938 73.066406 15.992188 72.988281 15.992188 Z M 72.988281 15.992188 " fill-opacity="1" fill-rule="nonzero"/><path fill="#f8ad53" d="M 61.527344 10.222656 C 61.527344 10.222656 64.445312 7.6875 65.828125 7.152344 C 67.210938 6.613281 65.75 8.6875 64.0625 9.457031 C 62.371094 10.222656 60.375 11.375 60.375 11.605469 C 60.375 11.835938 60.222656 11.375 61.527344 10.222656 Z M 61.527344 10.222656 " fill-opacity="1" fill-rule="nonzero"/><path fill="#f8ad53" d="M 87.410156 7.996094 C 87.410156 7.996094 88.484375 9.914062 89.714844 10.222656 C 90.945312 10.53125 88.410156 8.074219 87.410156 7.996094 Z M 87.410156 7.996094 " fill-opacity="1" fill-rule="nonzero"/><g clip-path="url(#d87c1b62fd)"><path fill="#f8ad53" d="M 72.738281 45.089844 C 73.816406 45.089844 76.503906 44.324219 77.5 44.859375 C 78.5 45.398438 76.808594 46.320312 74.199219 45.9375 C 71.589844 45.550781 70.972656 45.089844 72.738281 45.089844 Z M 72.738281 45.089844 " fill-opacity="1" fill-rule="nonzero"/></g><path fill="#f8ad53" d="M 93.707031 35.414062 C 93.707031 35.414062 94.167969 33.570312 95.011719 32.113281 C 95.859375 30.652344 95.933594 31.652344 95.472656 32.417969 C 95.011719 33.1875 93.9375 36.257812 93.476562 36.644531 C 93.015625 37.027344 93.632812 35.875 93.707031 35.414062 Z M 93.707031 35.414062 " fill-opacity="1" fill-rule="nonzero"/><path fill="#f8ad53" d="M 74.046875 4.613281 C 74.046875 4.613281 76.273438 4.230469 77.195312 4.539062 C 78.117188 4.84375 76.886719 5.535156 74.507812 5.535156 C 72.125 5.535156 71.511719 4.613281 74.046875 4.613281 Z M 74.046875 4.613281 " fill-opacity="1" fill-rule="nonzero"/><g clip-path="url(#ed8cdb029f)"><path fill="#ffbf80" d="M 74.894531 98.175781 C 61.648438 98.175781 50.910156 87.421875 50.910156 74.160156 C 50.910156 60.898438 61.648438 50.148438 74.894531 50.148438 C 88.140625 50.148438 98.875 60.898438 98.875 74.160156 C 98.875 87.421875 88.140625 98.175781 74.894531 98.175781 Z M 74.894531 0.203125 C 34.101562 0.203125 1.03125 33.316406 1.03125 74.160156 C 1.03125 115.007812 34.101562 148.121094 74.894531 148.121094 C 115.6875 148.121094 148.761719 115.007812 148.761719 74.160156 C 148.761719 33.316406 115.6875 0.203125 74.894531 0.203125 " fill-opacity="1" fill-rule="nonzero"/></g><g clip-path="url(#e243bc2e02)"><path fill="#ffb56c" d="M 133.679688 29.382812 C 137.351562 38.160156 139.382812 47.800781 139.382812 57.914062 C 139.382812 98.761719 106.308594 131.871094 65.515625 131.871094 C 41.53125 131.871094 20.222656 120.425781 6.726562 102.691406 C 17.882812 129.375 44.199219 148.121094 74.894531 148.121094 C 115.6875 148.121094 148.761719 115.007812 148.761719 74.160156 C 148.761719 57.328125 143.140625 41.8125 133.679688 29.382812 " fill-opacity="1" fill-rule="nonzero"/></g><path fill="#844116" d="M 75.664062 101.492188 C 69.480469 101.785156 63.207031 100.0625 58.523438 96.25 C 57.6875 95.566406 56.898438 94.820312 56.179688 94.007812 C 55.457031 93.195312 54.796875 92.324219 54.207031 91.398438 C 49.152344 83.804688 49.152344 74.695312 52.128906 66.574219 C 52.53125 65.378906 53.019531 64.226562 53.589844 63.125 C 57.582031 55.417969 65.625 50.148438 74.894531 50.148438 C 84.167969 50.148438 92.207031 55.417969 96.199219 63.125 C 96.769531 64.226562 97.257812 65.378906 97.652344 66.570312 C 100.433594 74.929688 99.789062 84.417969 94.65625 91.785156 C 90.421875 97.863281 83.113281 101.140625 75.664062 101.492188 Z M 75.375 1.519531 C 66.449219 0.820312 58.773438 7.066406 51.113281 10.835938 C 42.445312 15.101562 32.671875 17.757812 24.410156 23.074219 C 17.457031 27.550781 14.140625 32.894531 12.25 40.808594 C 10.710938 47.253906 10.527344 53.9375 9.777344 60.5 C 9.09375 66.464844 5.703125 71.089844 4.136719 76.886719 C 1.789062 85.578125 5.152344 93.132812 11.832031 98.785156 C 18.550781 104.46875 23.800781 108.003906 26.320312 116.863281 C 27.351562 120.484375 28.257812 124.226562 30.304688 127.386719 C 35.222656 134.980469 44.695312 133.082031 52.335938 134.734375 C 59.890625 136.375 65.226562 141.914062 72.023438 145.019531 C 82.515625 149.808594 90.71875 144.320312 99.660156 139.261719 C 105.183594 136.136719 111.882812 136.421875 117.488281 133.429688 C 124.3125 129.789062 129.914062 122.867188 130.9375 115.054688 C 131.640625 109.703125 132.652344 103.851562 136.25 99.621094 C 139.855469 95.386719 144.101562 90.652344 145.167969 84.859375 C 146.375 78.324219 143.390625 71.359375 140.503906 65.628906 C 138.230469 61.121094 134.53125 58.042969 132.828125 53.210938 C 129.996094 45.152344 131.164062 36.25 128.296875 28.28125 C 125.445312 20.34375 117.828125 16.144531 110.15625 13.933594 C 104.140625 12.203125 98.214844 10.160156 92.511719 7.574219 C 86.277344 4.742188 81.144531 1.972656 75.375 1.519531 " fill-opacity="1" fill-rule="nonzero"/><path fill="#783609" d="M 94.65625 91.785156 C 90.421875 97.863281 83.113281 101.140625 75.664062 101.492188 C 69.480469 101.785156 63.207031 100.0625 58.523438 96.25 C 57.6875 95.566406 56.898438 94.820312 56.179688 94.007812 C 55.457031 93.195312 54.796875 92.324219 54.207031 91.398438 C 49.152344 83.804688 49.152344 74.695312 52.128906 66.574219 C 52.53125 65.378906 53.019531 64.226562 53.589844 63.125 C 57.582031 55.417969 65.625 50.148438 74.894531 50.148438 C 84.167969 50.148438 92.207031 55.417969 96.199219 63.125 C 96.769531 64.226562 97.257812 65.378906 97.652344 66.570312 C 100.433594 74.929688 99.789062 84.417969 94.65625 91.785156 Z M 102.265625 57.773438 C 101.160156 54.972656 99.519531 52.570312 95.210938 51.082031 C 89.558594 49.128906 86.671875 43.910156 80.144531 43.960938 C 76.636719 43.988281 73.054688 45.296875 69.652344 46.464844 C 66.058594 47.699219 62.113281 47.511719 58.566406 48.890625 C 54.398438 50.507812 52.660156 54.125 50.492188 57.769531 C 46.015625 65.296875 41.46875 73.890625 40.757812 82.878906 C 40.273438 88.980469 43.03125 94.789062 47.050781 99.230469 C 53.691406 106.566406 61.15625 110.65625 71.152344 108.902344 C 74.382812 108.335938 77.566406 107.789062 80.84375 108.226562 C 84.300781 108.6875 88.773438 110.171875 91.878906 107.777344 C 94.46875 105.777344 96.046875 102.722656 98.539062 100.726562 C 101.28125 98.535156 104.421875 97.609375 105.996094 94.128906 C 107.265625 91.332031 106.863281 88.171875 107.808594 85.300781 C 108.722656 82.519531 110.914062 80.3125 111.136719 77.277344 C 111.445312 73.070312 108.480469 70.1875 106.195312 66.980469 C 103.960938 63.851562 103.386719 60.605469 102.265625 57.773438 " fill-opacity="1" fill-rule="nonzero"/><path fill="#ffe66a" d="M 39.019531 38.042969 C 38.585938 38.042969 38.148438 37.902344 37.777344 37.617188 C 36.898438 36.925781 36.738281 35.65625 37.425781 34.773438 L 41.777344 29.175781 C 42.460938 28.296875 43.730469 28.136719 44.613281 28.824219 C 45.496094 29.511719 45.652344 30.78125 44.96875 31.667969 L 40.617188 37.261719 C 40.21875 37.773438 39.621094 38.042969 39.019531 38.042969 " fill-opacity="1" fill-rule="nonzero"/><path fill="#33c2bc" d="M 33.089844 58.632812 C 33.007812 58.632812 32.925781 58.625 32.84375 58.617188 L 28.097656 58.039062 C 26.988281 57.902344 26.199219 56.894531 26.332031 55.78125 C 26.46875 54.671875 27.472656 53.882812 28.582031 54.019531 L 33.332031 54.597656 C 34.441406 54.734375 35.226562 55.742188 35.09375 56.851562 C 34.96875 57.878906 34.097656 58.632812 33.089844 58.632812 " fill-opacity="1" fill-rule="nonzero"/><path fill="#4ed9f9" d="M 45.351562 55.117188 C 44.679688 55.117188 44.019531 54.78125 43.636719 54.164062 L 42.449219 52.261719 C 41.855469 51.3125 42.144531 50.066406 43.09375 49.472656 C 44.039062 48.878906 45.285156 49.167969 45.878906 50.117188 L 47.066406 52.019531 C 47.65625 52.96875 47.367188 54.214844 46.421875 54.808594 C 46.089844 55.015625 45.714844 55.117188 45.351562 55.117188 " fill-opacity="1" fill-rule="nonzero"/><path fill="#fa5387" d="M 20.429688 40.851562 C 19.867188 40.851562 19.304688 40.617188 18.90625 40.160156 C 18.171875 39.320312 18.257812 38.039062 19.097656 37.304688 L 23.84375 33.144531 C 24.683594 32.410156 25.960938 32.496094 26.695312 33.335938 C 27.433594 34.175781 27.347656 35.457031 26.507812 36.191406 L 21.761719 40.351562 C 21.378906 40.6875 20.902344 40.851562 20.429688 40.851562 " fill-opacity="1" fill-rule="nonzero"/><path fill="#4ed9f9" d="M 20.429688 83.234375 L 13.703125 83.234375 C 12.585938 83.234375 11.683594 82.328125 11.683594 81.210938 C 11.683594 80.089844 12.585938 79.1875 13.703125 79.1875 L 20.429688 79.1875 C 21.542969 79.1875 22.449219 80.089844 22.449219 81.210938 C 22.449219 82.328125 21.542969 83.234375 20.429688 83.234375 " fill-opacity="1" fill-rule="nonzero"/><path fill="#fbfdfc" d="M 20.425781 74.914062 C 20.050781 74.914062 19.667969 74.8125 19.328125 74.589844 L 15.96875 72.414062 C 15.027344 71.804688 14.761719 70.550781 15.367188 69.613281 C 15.976562 68.675781 17.226562 68.40625 18.164062 69.015625 L 21.527344 71.191406 C 22.464844 71.800781 22.730469 73.054688 22.125 73.992188 C 21.738281 74.589844 21.089844 74.914062 20.425781 74.914062 " fill-opacity="1" fill-rule="nonzero"/><path fill="#4ed9f9" d="M 37.636719 96.898438 C 37.167969 96.898438 36.699219 96.738281 36.320312 96.410156 C 35.472656 95.683594 35.375 94.40625 36.101562 93.558594 L 42.035156 86.625 C 42.761719 85.777344 44.039062 85.679688 44.886719 86.40625 C 45.734375 87.132812 45.832031 88.414062 45.105469 89.261719 L 39.171875 96.191406 C 38.773438 96.660156 38.207031 96.898438 37.636719 96.898438 " fill-opacity="1" fill-rule="nonzero"/><path fill="#fa5387" d="M 42.582031 71.351562 L 39.8125 71.351562 C 38.695312 71.351562 37.792969 70.445312 37.792969 69.328125 C 37.792969 68.210938 38.695312 67.300781 39.8125 67.300781 L 42.582031 67.300781 C 43.699219 67.300781 44.601562 68.210938 44.601562 69.328125 C 44.601562 70.445312 43.699219 71.351562 42.582031 71.351562 " fill-opacity="1" fill-rule="nonzero"/><path fill="#4ed9f9" d="M 33.484375 83.234375 C 32.832031 83.234375 32.1875 82.917969 31.800781 82.332031 L 31.007812 81.144531 C 30.390625 80.214844 30.640625 78.957031 31.570312 78.339844 C 32.5 77.71875 33.753906 77.96875 34.375 78.898438 L 35.164062 80.085938 C 35.785156 81.015625 35.535156 82.273438 34.605469 82.894531 C 34.257812 83.125 33.871094 83.234375 33.484375 83.234375 " fill-opacity="1" fill-rule="nonzero"/><path fill="#fa5387" d="M 21.417969 104.117188 C 20.511719 104.117188 19.6875 103.507812 19.457031 102.589844 L 18.46875 98.667969 C 18.195312 97.585938 18.847656 96.484375 19.933594 96.210938 C 21.015625 95.9375 22.117188 96.59375 22.386719 97.679688 L 23.378906 101.597656 C 23.652344 102.679688 22.996094 103.78125 21.910156 104.058594 C 21.746094 104.097656 21.582031 104.117188 21.417969 104.117188 " fill-opacity="1" fill-rule="nonzero"/><path fill="#fbfdfc" d="M 39.8125 126.210938 L 34.078125 126.210938 C 32.960938 126.210938 32.054688 125.304688 32.054688 124.183594 C 32.054688 123.066406 32.960938 122.160156 34.078125 122.160156 L 39.8125 122.160156 C 40.929688 122.160156 41.835938 123.066406 41.835938 124.183594 C 41.835938 125.304688 40.929688 126.210938 39.8125 126.210938 " fill-opacity="1" fill-rule="nonzero"/><path fill="#ffe66a" d="M 36.941406 111.949219 C 36.011719 111.949219 35.171875 111.300781 34.96875 110.355469 C 34.734375 109.261719 35.425781 108.183594 36.515625 107.949219 L 40.175781 107.15625 C 41.269531 106.917969 42.34375 107.613281 42.578125 108.707031 C 42.816406 109.796875 42.125 110.875 41.03125 111.113281 L 37.371094 111.90625 C 37.226562 111.933594 37.085938 111.949219 36.941406 111.949219 " fill-opacity="1" fill-rule="nonzero"/><path fill="#4ed9f9" d="M 59.390625 121.0625 C 59.007812 121.0625 58.617188 120.949219 58.273438 120.722656 L 52.339844 116.757812 C 51.410156 116.140625 51.160156 114.882812 51.777344 113.953125 C 52.394531 113.023438 53.652344 112.769531 54.582031 113.390625 L 60.515625 117.351562 C 61.445312 117.972656 61.695312 119.230469 61.078125 120.160156 C 60.683594 120.746094 60.046875 121.0625 59.390625 121.0625 " fill-opacity="1" fill-rule="nonzero"/><path fill="#fa5387" d="M 54.847656 104.117188 C 54.210938 104.117188 53.585938 103.820312 53.191406 103.261719 C 52.546875 102.347656 52.765625 101.085938 53.679688 100.4375 L 56.445312 98.480469 C 57.359375 97.835938 58.621094 98.054688 59.265625 98.964844 C 59.910156 99.878906 59.691406 101.144531 58.78125 101.789062 L 56.011719 103.746094 C 55.65625 103.996094 55.25 104.117188 54.847656 104.117188 " fill-opacity="1" fill-rule="nonzero"/><path fill="#fbfdfc" d="M 76.207031 113.140625 C 75.714844 113.140625 75.21875 112.960938 74.832031 112.597656 L 72.0625 110.023438 C 71.242188 109.261719 71.195312 107.980469 71.957031 107.164062 C 72.714844 106.34375 73.992188 106.292969 74.8125 107.054688 L 77.582031 109.628906 C 78.402344 110.390625 78.449219 111.671875 77.6875 112.492188 C 77.289062 112.921875 76.75 113.140625 76.207031 113.140625 " fill-opacity="1" fill-rule="nonzero"/><path fill="#33c2bc" d="M 68.097656 139.675781 C 67.425781 139.675781 66.765625 139.339844 66.382812 138.726562 C 65.789062 137.777344 66.078125 136.53125 67.023438 135.9375 L 73.34375 131.976562 C 74.292969 131.382812 75.539062 131.667969 76.128906 132.617188 C 76.722656 133.566406 76.4375 134.816406 75.492188 135.410156 L 69.167969 139.367188 C 68.835938 139.578125 68.464844 139.675781 68.097656 139.675781 " fill-opacity="1" fill-rule="nonzero"/><path fill="#4ed9f9" d="M 93.214844 135.519531 C 92.9375 135.519531 92.65625 135.460938 92.386719 135.339844 C 91.371094 134.878906 90.914062 133.683594 91.375 132.664062 L 93.152344 128.703125 C 93.609375 127.683594 94.808594 127.226562 95.824219 127.6875 C 96.84375 128.144531 97.296875 129.34375 96.839844 130.363281 L 95.058594 134.324219 C 94.722656 135.074219 93.984375 135.519531 93.214844 135.519531 " fill-opacity="1" fill-rule="nonzero"/><path fill="#fa5387" d="M 83.921875 122.644531 C 83.234375 122.644531 82.566406 122.292969 82.1875 121.664062 C 81.609375 120.703125 81.921875 119.460938 82.882812 118.882812 L 88.8125 115.320312 C 89.773438 114.746094 91.015625 115.054688 91.589844 116.015625 C 92.164062 116.972656 91.851562 118.214844 90.894531 118.792969 L 84.960938 122.355469 C 84.632812 122.550781 84.277344 122.644531 83.921875 122.644531 " fill-opacity="1" fill-rule="nonzero"/><path fill="#4ed9f9" d="M 98.875 103.136719 C 98.511719 103.136719 98.148438 103.039062 97.816406 102.835938 L 93.046875 99.898438 C 92.097656 99.3125 91.800781 98.066406 92.382812 97.113281 C 92.96875 96.160156 94.214844 95.863281 95.167969 96.449219 L 99.9375 99.390625 C 100.886719 99.972656 101.183594 101.222656 100.601562 102.175781 C 100.21875 102.796875 99.554688 103.136719 98.875 103.136719 " fill-opacity="1" fill-rule="nonzero"/><path fill="#ffe66a" d="M 112.402344 127.597656 C 112.15625 127.597656 111.90625 127.550781 111.664062 127.457031 L 106.125 125.277344 C 105.085938 124.867188 104.574219 123.695312 104.980469 122.652344 C 105.390625 121.613281 106.566406 121.101562 107.605469 121.507812 L 113.140625 123.6875 C 114.179688 124.097656 114.691406 125.273438 114.285156 126.3125 C 113.972656 127.109375 113.210938 127.597656 112.402344 127.597656 " fill-opacity="1" fill-rule="nonzero"/><path fill="#fbfdfc" d="M 109.632812 116.308594 C 109.300781 116.308594 108.960938 116.226562 108.652344 116.054688 C 107.675781 115.511719 107.324219 114.277344 107.867188 113.300781 L 109.84375 109.734375 C 110.386719 108.757812 111.617188 108.40625 112.59375 108.949219 C 113.570312 109.492188 113.921875 110.722656 113.378906 111.703125 L 111.402344 115.265625 C 111.03125 115.933594 110.34375 116.308594 109.632812 116.308594 " fill-opacity="1" fill-rule="nonzero"/><path fill="#4ed9f9" d="M 132.179688 96.703125 C 131.898438 96.703125 131.613281 96.644531 131.339844 96.515625 L 124.21875 93.25 C 123.203125 92.785156 122.757812 91.582031 123.222656 90.566406 C 123.6875 89.550781 124.886719 89.101562 125.902344 89.570312 L 133.023438 92.835938 C 134.039062 93.300781 134.484375 94.503906 134.019531 95.519531 C 133.679688 96.261719 132.945312 96.703125 132.179688 96.703125 " fill-opacity="1" fill-rule="nonzero"/><path fill="#4ed9f9" d="M 116.164062 81.847656 C 116.039062 81.847656 115.914062 81.835938 115.789062 81.8125 C 114.691406 81.609375 113.96875 80.546875 114.171875 79.449219 L 114.765625 76.28125 C 114.972656 75.183594 116.027344 74.460938 117.125 74.664062 C 118.222656 74.871094 118.945312 75.929688 118.742188 77.027344 L 118.148438 80.195312 C 117.964844 81.167969 117.117188 81.847656 116.164062 81.847656 " fill-opacity="1" fill-rule="nonzero"/><path fill="#fbfdfc" d="M 101.128906 90.773438 C 100.613281 90.773438 100.097656 90.578125 99.703125 90.1875 C 98.910156 89.398438 98.90625 88.113281 99.695312 87.320312 L 103.253906 83.742188 C 104.042969 82.949219 105.324219 82.949219 106.113281 83.734375 C 106.90625 84.527344 106.910156 85.808594 106.121094 86.601562 L 102.5625 90.179688 C 102.164062 90.578125 101.648438 90.773438 101.128906 90.773438 " fill-opacity="1" fill-rule="nonzero"/><path fill="#ffe66a" d="M 102.910156 67.195312 C 102.167969 67.195312 101.457031 66.78125 101.101562 66.074219 L 99.914062 63.695312 C 99.414062 62.695312 99.816406 61.480469 100.816406 60.980469 C 101.816406 60.480469 103.03125 60.886719 103.53125 61.886719 L 104.71875 64.261719 C 105.214844 65.261719 104.8125 66.480469 103.8125 66.976562 C 103.523438 67.125 103.214844 67.195312 102.910156 67.195312 " fill-opacity="1" fill-rule="nonzero"/><path fill="#ffe66a" d="M 135.746094 79.273438 C 135.148438 79.273438 134.558594 79.011719 134.160156 78.507812 C 133.464844 77.632812 133.609375 76.359375 134.484375 75.664062 L 137.054688 73.617188 C 137.929688 72.921875 139.203125 73.066406 139.898438 73.941406 C 140.589844 74.816406 140.445312 76.09375 139.570312 76.789062 L 137 78.835938 C 136.628906 79.128906 136.183594 79.273438 135.746094 79.273438 " fill-opacity="1" fill-rule="nonzero"/><path fill="#fa5387" d="M 119.527344 58.34375 C 118.808594 58.34375 118.117188 57.960938 117.75 57.289062 C 117.214844 56.308594 117.574219 55.078125 118.550781 54.539062 L 121.914062 52.699219 C 122.894531 52.164062 124.121094 52.519531 124.660156 53.5 C 125.195312 54.484375 124.835938 55.714844 123.855469 56.25 L 120.492188 58.089844 C 120.183594 58.261719 119.855469 58.34375 119.527344 58.34375 " fill-opacity="1" fill-rule="nonzero"/><path fill="#33c2bc" d="M 126.246094 40.457031 C 125.96875 40.457031 125.6875 40.398438 125.414062 40.277344 L 119.285156 37.503906 C 118.265625 37.042969 117.8125 35.847656 118.273438 34.824219 C 118.734375 33.808594 119.929688 33.351562 120.949219 33.8125 L 127.082031 36.585938 C 128.097656 37.046875 128.550781 38.246094 128.089844 39.265625 C 127.753906 40.011719 127.015625 40.457031 126.246094 40.457031 " fill-opacity="1" fill-rule="nonzero"/><path fill="#fbfdfc" d="M 111.808594 46.398438 C 111.246094 46.398438 110.6875 46.164062 110.285156 45.707031 C 109.550781 44.863281 109.636719 43.585938 110.476562 42.851562 L 112.058594 41.460938 C 112.898438 40.726562 114.175781 40.8125 114.914062 41.65625 C 115.648438 42.496094 115.5625 43.773438 114.722656 44.511719 L 113.140625 45.898438 C 112.757812 46.234375 112.285156 46.398438 111.808594 46.398438 " fill-opacity="1" fill-rule="nonzero"/><path fill="#ffe66a" d="M 94.996094 45.707031 C 94.773438 45.707031 94.546875 45.667969 94.324219 45.589844 L 86.214844 42.714844 C 85.160156 42.34375 84.609375 41.1875 84.980469 40.132812 C 85.351562 39.082031 86.511719 38.527344 87.558594 38.902344 L 95.667969 41.769531 C 96.722656 42.144531 97.273438 43.300781 96.902344 44.355469 C 96.609375 45.183594 95.828125 45.707031 94.996094 45.707031 " fill-opacity="1" fill-rule="nonzero"/><path fill="#fa5387" d="M 100.136719 35.246094 C 99.289062 35.246094 98.5 34.703125 98.21875 33.851562 L 96.957031 30.015625 C 96.609375 28.953125 97.183594 27.808594 98.246094 27.457031 C 99.308594 27.109375 100.449219 27.6875 100.796875 28.75 L 102.058594 32.585938 C 102.410156 33.648438 101.832031 34.792969 100.773438 35.140625 C 100.5625 35.210938 100.347656 35.246094 100.136719 35.246094 " fill-opacity="1" fill-rule="nonzero"/><path fill="#fa5387" d="M 112.601562 25.800781 C 111.894531 25.800781 111.210938 25.429688 110.839844 24.769531 C 110.289062 23.796875 110.632812 22.5625 111.609375 22.011719 L 115.464844 19.835938 C 116.4375 19.285156 117.667969 19.628906 118.21875 20.601562 C 118.765625 21.578125 118.425781 22.8125 117.449219 23.359375 L 113.59375 25.539062 C 113.28125 25.71875 112.9375 25.800781 112.601562 25.800781 " fill-opacity="1" fill-rule="nonzero"/><path fill="#ffe66a" d="M 92.425781 17.089844 L 90.050781 17.089844 C 88.933594 17.089844 88.03125 16.179688 88.03125 15.0625 C 88.03125 13.945312 88.933594 13.039062 90.050781 13.039062 L 92.425781 13.039062 C 93.542969 13.039062 94.449219 13.945312 94.449219 15.0625 C 94.449219 16.179688 93.542969 17.089844 92.425781 17.089844 " fill-opacity="1" fill-rule="nonzero"/><path fill="#fa5387" d="M 78.46875 11.742188 C 77.933594 11.742188 77.402344 11.527344 77.003906 11.113281 L 73.429688 7.347656 C 72.660156 6.535156 72.691406 5.253906 73.503906 4.484375 C 74.308594 3.714844 75.589844 3.746094 76.359375 4.558594 L 79.933594 8.320312 C 80.703125 9.128906 80.671875 10.410156 79.863281 11.183594 C 79.472656 11.554688 78.972656 11.742188 78.46875 11.742188 " fill-opacity="1" fill-rule="nonzero"/><path fill="#4ed9f9" d="M 78.472656 30.355469 C 77.738281 30.355469 77.03125 29.957031 76.671875 29.261719 C 76.160156 28.265625 76.550781 27.046875 77.542969 26.53125 L 80.222656 25.144531 C 81.214844 24.632812 82.433594 25.023438 82.949219 26.015625 C 83.460938 27.011719 83.070312 28.230469 82.078125 28.746094 L 79.398438 30.128906 C 79.101562 30.28125 78.785156 30.355469 78.472656 30.355469 " fill-opacity="1" fill-rule="nonzero"/><path fill="#fa5387" d="M 67.304688 48.773438 C 66.871094 48.773438 66.433594 48.636719 66.066406 48.351562 C 65.183594 47.667969 65.023438 46.394531 65.707031 45.511719 L 68.078125 42.441406 C 68.765625 41.558594 70.03125 41.394531 70.917969 42.078125 C 71.800781 42.761719 71.960938 44.035156 71.277344 44.917969 L 68.902344 47.988281 C 68.507812 48.503906 67.90625 48.773438 67.304688 48.773438 " fill-opacity="1" fill-rule="nonzero"/><path fill="#fbfdfc" d="M 59.589844 38.773438 L 56.230469 38.773438 C 55.113281 38.773438 54.207031 37.867188 54.207031 36.75 C 54.207031 35.628906 55.113281 34.726562 56.230469 34.726562 L 59.589844 34.726562 C 60.707031 34.726562 61.613281 35.628906 61.613281 36.75 C 61.613281 37.867188 60.707031 38.773438 59.589844 38.773438 " fill-opacity="1" fill-rule="nonzero"/><path fill="#4ed9f9" d="M 59.589844 20.453125 C 59.3125 20.453125 59.03125 20.398438 58.765625 20.277344 L 53.027344 17.703125 C 52.007812 17.246094 51.554688 16.046875 52.007812 15.027344 C 52.46875 14.007812 53.664062 13.550781 54.683594 14.007812 L 60.417969 16.582031 C 61.4375 17.039062 61.894531 18.238281 61.4375 19.257812 C 61.101562 20.007812 60.363281 20.453125 59.589844 20.453125 " fill-opacity="1" fill-rule="nonzero"/><path fill="#fbfdfc" d="M 65.722656 28.574219 C 65.207031 28.574219 64.6875 28.375 64.292969 27.980469 C 63.503906 27.191406 63.503906 25.910156 64.292969 25.117188 L 66.074219 23.335938 C 66.863281 22.542969 68.144531 22.542969 68.933594 23.335938 C 69.722656 24.125 69.722656 25.40625 68.933594 26.199219 L 67.152344 27.980469 C 66.757812 28.375 66.242188 28.574219 65.722656 28.574219 " fill-opacity="1" fill-rule="nonzero"/><path fill="#4ed9f9" d="M 34.078125 24.710938 C 33.304688 24.710938 32.566406 24.265625 32.230469 23.515625 C 31.773438 22.496094 32.230469 21.296875 33.25 20.839844 L 36.117188 19.554688 C 37.136719 19.09375 38.332031 19.550781 38.789062 20.570312 C 39.246094 21.589844 38.789062 22.789062 37.769531 23.25 L 34.902344 24.535156 C 34.632812 24.65625 34.351562 24.710938 34.078125 24.710938 " fill-opacity="1" fill-rule="nonzero"/><path fill="#33c2bc" d="M 126.710938 111.554688 C 126.011719 111.554688 125.328125 111.1875 124.953125 110.535156 L 122.582031 106.375 C 122.027344 105.40625 122.363281 104.167969 123.332031 103.613281 C 124.304688 103.058594 125.539062 103.398438 126.089844 104.367188 L 128.464844 108.527344 C 129.019531 109.496094 128.679688 110.734375 127.710938 111.289062 C 127.394531 111.46875 127.050781 111.554688 126.710938 111.554688 " fill-opacity="1" fill-rule="nonzero"/><path fill="#fa5387" d="M 112.601562 98.417969 C 112.066406 98.417969 111.535156 98.207031 111.140625 97.792969 C 110.367188 96.984375 110.394531 95.703125 111.203125 94.929688 L 113.128906 93.082031 C 113.9375 92.308594 115.21875 92.335938 115.988281 93.144531 C 116.761719 93.953125 116.734375 95.234375 115.925781 96.007812 L 114 97.855469 C 113.605469 98.230469 113.101562 98.417969 112.601562 98.417969 " fill-opacity="1" fill-rule="nonzero"/></svg>